<svg width="160" height="34" fill="none" xmlns="http://www.w3.org/2000/svg"><g filter="url(#filter0_d)" fill="#fff"><path d="M17.73 4.82c.14.22.26.52.36.9.12.36.18.74.18 1.14 0 .78-.17 1.34-.51 1.68-.32.32-.76.48-1.32.48h-6.3v3.39h6.57c.16.22.29.51.39.87.12.36.18.74.18 1.14 0 .76-.17 1.31-.51 1.65-.32.32-.76.48-1.32.48H10.2v6.33c-.22.06-.57.12-1.05.18-.46.06-.92.09-1.38.09-.46 0-.87-.04-1.23-.12-.34-.06-.63-.18-.87-.36a1.62 1.62 0 01-.54-.75c-.12-.32-.18-.74-.18-1.26V7.61c0-.86.25-1.54.75-2.04s1.18-.75 2.04-.75h9.99zm8.334 14.94c.34 0 .71-.03 1.11-.09.42-.08.73-.18.93-.3v-2.4l-2.16.18c-.56.04-1.02.16-1.38.36-.36.2-.54.5-.54.9s.15.73.45.99c.32.24.85.36 1.59.36zm-.24-11.79c1.08 0 2.06.11 2.94.33.9.22 1.66.56 2.28 1.02.64.44 1.13 1.01 1.47 1.71.34.68.51 1.49.51 2.43v6.72c0 .52-.15.95-.45 1.29-.28.32-.62.6-1.02.84-1.3.78-3.13 1.17-5.49 1.17-1.06 0-2.02-.1-2.88-.3-.84-.2-1.57-.5-2.19-.9-.6-.4-1.07-.91-1.41-1.53-.32-.62-.48-1.34-.48-2.16 0-1.38.41-2.44 1.23-3.18.82-.74 2.09-1.2 3.81-1.38l3.93-.42v-.21c0-.58-.26-.99-.78-1.23-.5-.26-1.23-.39-2.19-.39-.76 0-1.5.08-2.22.24-.72.16-1.37.36-1.95.6-.26-.18-.48-.45-.66-.81-.18-.38-.27-.77-.27-1.17 0-.52.12-.93.36-1.23.26-.32.65-.59 1.17-.81.58-.22 1.26-.38 2.04-.48.8-.1 1.55-.15 2.25-.15zm19.558 5.79c0-.62-.18-1.07-.54-1.35-.34-.3-.81-.45-1.41-.45-.4 0-.8.05-1.2.15-.38.1-.71.25-.99.45v10.41c-.2.06-.52.12-.96.18-.42.06-.86.09-1.32.09-.44 0-.84-.03-1.2-.09-.34-.06-.63-.18-.87-.36s-.43-.42-.57-.72c-.12-.32-.18-.73-.18-1.23v-9c0-.54.11-.98.33-1.32.24-.34.56-.65.96-.93.68-.48 1.53-.87 2.55-1.17 1.04-.3 2.19-.45 3.45-.45 2.26 0 4 .5 5.22 1.5 1.22.98 1.83 2.35 1.83 4.11v9.39c-.2.06-.52.12-.96.18-.42.06-.86.09-1.32.09-.44 0-.84-.03-1.2-.09-.34-.06-.63-.18-.87-.36s-.43-.42-.57-.72c-.12-.32-.18-.73-.18-1.23v-7.08zm16.47-1.77c-.5 0-.98.08-1.44.24-.44.16-.83.4-1.17.72-.32.3-.58.68-.78 1.14-.2.46-.3 1-.3 1.62 0 1.24.35 2.17 1.05 2.79.72.62 1.59.93 2.61.93.6 0 1.12-.07 1.56-.21.44-.14.83-.29 1.17-.45.4.28.7.59.9.93.2.32.3.71.3 1.17 0 .82-.39 1.46-1.17 1.92-.78.44-1.86.66-3.24.66-1.26 0-2.4-.18-3.42-.54-1.02-.38-1.9-.9-2.64-1.56a7.153 7.153 0 01-1.68-2.43c-.4-.94-.6-1.98-.6-3.12 0-1.32.21-2.47.63-3.45.44-1 1.03-1.82 1.77-2.46.74-.64 1.59-1.12 2.55-1.44.98-.32 2.01-.48 3.09-.48 1.44 0 2.55.26 3.33.78.78.52 1.17 1.19 1.17 2.01 0 .38-.09.74-.27 1.08-.18.32-.39.6-.63.84-.34-.16-.75-.31-1.23-.45-.48-.16-1-.24-1.56-.24zm8.738 7.29c-.22-.5-.46-1.06-.72-1.68-.24-.62-.5-1.33-.78-2.13-.26-.8-.54-1.71-.84-2.73-.28-1.04-.58-2.23-.9-3.57.28-.28.65-.52 1.11-.72.48-.22 1-.33 1.56-.33.7 0 1.28.15 1.74.45.46.28.8.82 1.02 1.62l2.37 8.25h.12c.24-.68.47-1.42.69-2.22.24-.8.47-1.62.69-2.46.22-.86.42-1.71.6-2.55.2-.86.37-1.7.51-2.52a5 5 0 012.37-.57c.7 0 1.28.15 1.74.45.46.3.69.82.69 1.56 0 .54-.07 1.17-.21 1.89-.14.7-.33 1.45-.57 2.25-.22.8-.49 1.63-.81 2.49-.3.84-.62 1.67-.96 2.49-.34.82-.69 1.6-1.05 2.34-.36.72-.71 1.37-1.05 1.95-.56.98-1.08 1.78-1.56 2.4-.48.62-.94 1.1-1.38 1.44-.44.36-.88.6-1.32.72-.44.14-.9.21-1.38.21-.84 0-1.52-.25-2.04-.75s-.83-1.15-.93-1.95c.64-.5 1.28-1.06 1.92-1.68.64-.6 1.22-1.22 1.74-1.86-.34-.1-.71-.33-1.11-.69-.38-.38-.8-1.08-1.26-2.1zm12.142 1.29c0-.84.26-1.54.78-2.1s1.23-.84 2.13-.84c.9 0 1.61.28 2.13.84.52.56.78 1.26.78 2.1 0 .84-.26 1.54-.78 2.1s-1.23.84-2.13.84c-.9 0-1.61-.28-2.13-.84-.52-.56-.78-1.26-.78-2.1zm20.495-1.92c0 1.52-.57 2.71-1.71 3.57-1.14.86-2.82 1.29-5.04 1.29-.84 0-1.62-.06-2.34-.18-.72-.12-1.34-.3-1.86-.54-.5-.26-.9-.58-1.2-.96-.28-.38-.42-.83-.42-1.35 0-.48.1-.88.3-1.2.2-.34.44-.62.72-.84.58.32 1.24.61 1.98.87.76.24 1.63.36 2.61.36.62 0 1.09-.09 1.41-.27.34-.18.51-.42.51-.72 0-.28-.12-.5-.36-.66-.24-.16-.64-.29-1.2-.39l-.9-.18c-1.74-.34-3.04-.87-3.9-1.59-.84-.74-1.26-1.79-1.26-3.15 0-.74.16-1.41.48-2.01.32-.6.77-1.1 1.35-1.5.58-.4 1.27-.71 2.07-.93.82-.22 1.72-.33 2.7-.33.74 0 1.43.06 2.07.18.66.1 1.23.26 1.71.48.48.22.86.51 1.14.87.28.34.42.75.42 1.23 0 .46-.09.86-.27 1.2-.16.32-.37.59-.63.81-.16-.1-.4-.2-.72-.3a7.24 7.24 0 00-1.05-.3c-.38-.1-.77-.18-1.17-.24-.38-.06-.73-.09-1.05-.09-.66 0-1.17.08-1.53.24-.36.14-.54.37-.54.69 0 .22.1.4.3.54.2.14.58.27 1.14.39l.93.21c1.92.44 3.28 1.05 4.08 1.83.82.76 1.23 1.75 1.23 2.97zm16.866 4.32c-.2.06-.52.12-.96.18-.42.06-.86.09-1.32.09-.44 0-.84-.03-1.2-.09-.34-.06-.63-.18-.87-.36s-.43-.42-.57-.72c-.12-.32-.18-.73-.18-1.23v-6.66c0-.82-.21-1.39-.63-1.71-.4-.34-.9-.51-1.5-.51-.4 0-.78.05-1.14.15-.36.1-.65.22-.87.36v10.5c-.2.06-.52.12-.96.18-.42.06-.86.09-1.32.09-.44 0-.84-.03-1.2-.09-.34-.06-.63-.18-.87-.36s-.43-.42-.57-.72c-.12-.32-.18-.73-.18-1.23V3.44c.22-.04.54-.09.96-.15.44-.08.88-.12 1.32-.12.44 0 .83.03 1.17.09.36.06.66.18.9.36s.42.43.54.75c.14.3.21.7.21 1.2v2.94c.26-.1.65-.21 1.17-.33.54-.14 1.13-.21 1.77-.21 1.98 0 3.52.5 4.62 1.5 1.12.98 1.68 2.45 1.68 4.41v9.09zm18.239-7.26c0 1.24-.19 2.35-.57 3.33-.38.96-.92 1.77-1.62 2.43-.68.66-1.5 1.16-2.46 1.5-.96.34-2.03.51-3.21.51-1.18 0-2.25-.18-3.21-.54a7.34 7.34 0 01-2.49-1.53c-.68-.68-1.21-1.5-1.59-2.46-.38-.96-.57-2.04-.57-3.24 0-1.18.19-2.25.57-3.21.38-.96.91-1.77 1.59-2.43.7-.68 1.53-1.2 2.49-1.56.96-.36 2.03-.54 3.21-.54 1.18 0 2.25.19 3.21.57.96.36 1.78.88 2.46 1.56.7.66 1.24 1.47 1.62 2.43.38.96.57 2.02.57 3.18zm-10.5 0c0 1.22.23 2.16.69 2.82.48.64 1.14.96 1.98.96.84 0 1.48-.33 1.92-.99.46-.66.69-1.59.69-2.79s-.23-2.12-.69-2.76c-.46-.66-1.11-.99-1.95-.99-.84 0-1.49.33-1.95.99-.46.64-.69 1.56-.69 2.76zm19.678-7.74c1.2 0 2.31.16 3.33.48 1.04.3 1.93.77 2.67 1.41.74.64 1.32 1.45 1.74 2.43.42.96.63 2.11.63 3.45 0 1.28-.18 2.4-.54 3.36-.36.96-.87 1.77-1.53 2.43-.66.64-1.46 1.12-2.4 1.44-.92.32-1.95.48-3.09.48-.86 0-1.66-.13-2.4-.39v4.98c-.2.06-.52.12-.96.18-.44.08-.89.12-1.35.12-.44 0-.84-.03-1.2-.09-.34-.06-.63-.18-.87-.36a1.62 1.62 0 01-.54-.75c-.12-.3-.18-.7-.18-1.2v-14.4c0-.54.11-.98.33-1.32.24-.34.56-.65.96-.93.62-.4 1.39-.72 2.31-.96.92-.24 1.95-.36 3.09-.36zm.06 11.46c2.06 0 3.09-1.23 3.09-3.69 0-1.28-.26-2.23-.78-2.85-.5-.62-1.23-.93-2.19-.93-.38 0-.72.05-1.02.15-.3.08-.56.18-.78.3v6.6c.24.12.5.22.78.3.28.08.58.12.9.12z"/></g><defs><filter id="filter0_d" x=".95" y=".17" width="158.93" height="33.17" filterUnits="userSpaceOnUse" color-interpolation-filters="sRGB"><feFlood flood-opacity="0" result="BackgroundImageFix"/><feColorMatrix in="SourceAlpha" values="0 0 0 0 0 0 0 0 0 0 0 0 0 0 0 0 0 0 127 0"/><feOffset dy="1"/><feGaussianBlur stdDeviation="2"/><feColorMatrix values="0 0 0 0 0 0 0 0 0 0 0 0 0 0 0 0 0 0 0.22 0"/><feBlend in2="BackgroundImageFix" result="effect1_dropShadow"/><feBlend in="SourceGraphic" in2="effect1_dropShadow" result="shape"/></filter></defs></svg>